<svg aria-hidden="true" style="position: absolute; width: 0; height: 0; overflow: hidden;" version="1.1" xmlns="http://www.w3.org/2000/svg" xmlns:xlink="http://www.w3.org/1999/xlink">
    <defs>
		<symbol id="logo-mobile" width="168" height="16" viewBox="0 0 168 16" fill="none" xmlns="http://www.w3.org/2000/svg">
			<path d="M14.5411 0.156924H12.5364C11.9178 0.156924 11.4163 0.648347 11.4163 1.25459V3.21923C11.4163 3.82547 11.9178 4.31692 12.5364 4.31692H14.5411C15.1597 4.31692 15.6612 3.82547 15.6612 3.21923V1.25459C15.6612 0.648347 15.1597 0.156924 14.5411 0.156924Z" fill="#FBFBFB"/>
			<path d="M3.36519 11.52H1.20624C0.540049 11.52 0 12.0115 0 12.6177V14.5823C0 15.1886 0.540049 15.68 1.20624 15.68H3.36519C4.03138 15.68 4.57143 15.1886 4.57143 14.5823V12.6177C4.57143 12.0115 4.03138 11.52 3.36519 11.52Z" fill="#FBFBFB"/>
			<path d="M3.1248 5.79091H1.12007C0.501486 5.79091 0 6.28233 0 6.88857V8.85321C0 9.45945 0.501599 9.95091 1.12018 9.95091H3.1248C3.74341 9.95091 4.2449 9.45945 4.2449 8.85321V6.88857C4.2449 6.28233 3.74341 5.79091 3.1248 5.79091Z" fill="#FBFBFB"/>
			<path d="M8.88295 11.4891H6.87822C6.25964 11.4891 5.75815 11.9805 5.75815 12.5868L5.75804 14.5514C5.75804 15.1576 6.25975 15.6491 6.87833 15.6491H8.88295C9.50157 15.6491 10.0031 15.1576 10.0031 14.5514V12.5868C10.0031 11.9805 9.50157 11.4891 8.88295 11.4891Z" fill="#FBFBFB"/>
			<path d="M3.1248 0.0431361H1.12007C0.501486 0.0431361 0 0.534559 0 1.1408V3.10544C0 3.71168 0.501599 4.20314 1.12018 4.20314H3.1248C3.74341 4.20314 4.2449 3.71168 4.2449 3.10544V1.1408C4.2449 0.534559 3.74341 0.0431361 3.1248 0.0431361Z" fill="#FBFBFB"/>
			<path d="M9.03794 5.84874H7.03321C6.41463 5.84874 5.91314 6.34016 5.91314 6.9464V8.91104C5.91314 9.51728 6.41474 10.0087 7.03332 10.0087H9.03794C9.65655 10.0087 10.158 9.51728 10.158 8.91104V6.9464C10.158 6.34016 9.65655 5.84874 9.03794 5.84874Z" fill="#FBFBFB"/>
			<path d="M14.6667 11.4891H12.6619C12.0434 11.4891 11.5419 11.9805 11.5419 12.5868V14.5514C11.5419 15.1576 12.0435 15.6491 12.662 15.6491H14.6667C15.2853 15.6491 15.7868 15.1576 15.7868 14.5514V12.5868C15.7868 11.9805 15.2853 11.4891 14.6667 11.4891Z" fill="#FBFBFB"/>
			<path d="M8.7953 0.111854H6.79056C6.17198 0.111854 5.6705 0.603277 5.6705 1.20952V3.17416C5.6705 3.7804 6.1721 4.27185 6.79068 4.27185H8.7953C9.41391 4.27185 9.91539 3.78003 9.91539 3.17379V1.20952C9.91539 0.603277 9.41391 0.111854 8.7953 0.111854Z" fill="#FBFBFB"/>
			<path d="M14.5219 5.96291H12.5171C11.8985 5.96291 11.3971 6.45433 11.3971 7.06057V9.02521C11.3971 9.63145 11.8987 10.1229 12.5172 10.1229H14.5219C15.1405 10.1229 15.642 9.63145 15.642 9.02521V7.06057C15.642 6.45433 15.1405 5.96291 14.5219 5.96291Z" fill="#FBFBFB"/>
			<path d="M26.301 14C22.5132 14 20 11.648 20 7.984C20 4.4 22.4773 2 26.2112 2C29.3527 2 31.5607 3.648 31.8839 6.128H29.2809C29.0296 4.704 27.8268 3.904 26.2112 3.904C23.9493 3.904 22.603 5.536 22.603 7.984C22.603 10.672 24.1109 12.096 26.301 12.096C28.2038 12.096 29.4245 11.136 29.5502 9.696V9.536H26.0496V7.744H31.9736V9.216C31.8659 12.08 29.604 14 26.301 14Z" fill="#FBFBFB"/>
			<path d="M33.543 13.84V2.16H39.8439C43.0572 2.16 44.3318 3.552 44.3318 5.568C44.3318 7.376 42.8957 8.24 41.2262 8.448V8.496C42.3033 8.736 42.788 9.264 43.2368 10.304C43.8112 11.616 43.901 13.184 44.637 13.744V13.84H41.7647C41.1544 13.296 41.0108 11.584 40.6876 10.544C40.3645 9.472 39.6644 9.344 38.354 9.344H36.0562V13.84H33.543ZM36.0562 7.488H39.5747C41.0467 7.488 41.7288 6.72 41.7288 5.728C41.7288 4.64 40.8851 4.016 39.5747 4.016H36.0562V7.488Z" fill="#FBFBFB"/>
			<path d="M46.001 13.84V2.16H54.9588V4.016H48.5142V6.8H54.3305V8.656H48.5142V11.936H55.0485V13.84H46.001Z" fill="#FBFBFB"/>
			<path d="M56.7936 13.84V2.16H65.7514V4.016H59.3068V6.8H65.1231V8.656H59.3068V11.936H65.8411V13.84H56.7936Z" fill="#FBFBFB"/>
			<path d="M67.5862 13.84V2.16H70.638L74.9822 8.608C76.3106 10.56 76.4722 11.2 76.4722 11.2H76.526L76.4901 2.16H79.0033V13.84H75.9336L71.4278 7.2C70.4046 5.696 70.1353 4.784 70.1353 4.784H70.0994V13.84H67.5862Z" fill="#FBFBFB"/>
			<path d="M80.894 13.84V11.472H83.5149V13.84H80.894Z" fill="#FBFBFB"/>
			<path d="M85.4023 13.84V2.16H87.9155V6.832H93.9293V2.16H96.4425V13.84H93.9293V8.688H87.9155V13.84H85.4023Z" fill="#FBFBFB"/>
			<path d="M97.5166 13.84L102.543 2.16H105.272L110.37 13.84H107.677L106.618 11.152H101.179L100.12 13.84H97.5166ZM101.897 9.296H105.9L104.733 6.416C103.925 4.288 103.907 3.904 103.907 3.904H103.871C103.871 3.904 103.871 4.288 103.064 6.416L101.897 9.296Z" fill="#FBFBFB"/>
			<path d="M111.44 13.84V2.16H117.741C120.955 2.16 122.229 3.552 122.229 5.568C122.229 7.376 120.793 8.24 119.124 8.448V8.496C120.201 8.736 120.685 9.264 121.134 10.304C121.709 11.616 121.798 13.184 122.534 13.744V13.84H119.662C119.052 13.296 118.908 11.584 118.585 10.544C118.262 9.472 117.562 9.344 116.251 9.344H113.954V13.84H111.44ZM113.954 7.488H117.472C118.944 7.488 119.626 6.72 119.626 5.728C119.626 4.64 118.782 4.016 117.472 4.016H113.954V7.488Z" fill="#FBFBFB"/>
			<path d="M126.563 13.84L121.752 2.16H124.445C124.445 2.16 127.048 8.704 127.317 9.504C127.748 10.784 127.945 11.44 127.945 11.44H127.981C127.963 11.44 128.161 10.784 128.609 9.504C128.897 8.704 131.392 2.16 131.392 2.16H133.995L129.363 13.84H126.563Z" fill="#FBFBFB"/>
			<path d="M135.024 13.84V2.16H143.982V4.016H137.537V6.8H143.354V8.656H137.537V11.936H144.072V13.84H135.024Z" fill="#FBFBFB"/>
			<path d="M150.311 14C146.972 14 144.961 12.384 144.961 9.984H147.834C147.798 11.344 148.803 12.096 150.311 12.096C151.909 12.096 152.662 11.536 152.662 10.704C152.662 9.872 152.016 9.52 149.718 8.96C147.618 8.448 145.32 7.84 145.32 5.44C145.32 3.536 147.187 2 150.131 2C153.165 2 155.104 3.52 155.104 5.664H152.321C152.303 4.528 151.442 3.904 150.131 3.904C148.857 3.904 148.013 4.48 148.013 5.248C148.013 6.16 148.713 6.448 150.544 6.912C153.255 7.584 155.445 7.856 155.445 10.464C155.445 12.56 153.309 14 150.311 14Z" fill="#FBFBFB"/>
			<path d="M159.537 13.84V4.064H155.57V2.16H166V4.064H162.051V13.84H159.537Z" fill="#FBFBFB"/>
		</symbol>
		<symbol id="logo-tablet" width="216" height="20" viewBox="0 0 216 20" fill="none" xmlns="http://www.w3.org/2000/svg">
			<path d="M18.1764 0.196155H15.6704C14.8972 0.196155 14.2704 0.810434 14.2704 1.56823V4.02403C14.2704 4.78183 14.8972 5.39615 15.6704 5.39615H18.1764C18.9496 5.39615 19.5765 4.78183 19.5765 4.02403V1.56823C19.5765 0.810434 18.9496 0.196155 18.1764 0.196155Z" fill="#FBFBFB"/>
			<path d="M4.20649 14.4H1.5078C0.675061 14.4 0 15.0143 0 15.7721V18.2279C0 18.9857 0.675061 19.6 1.5078 19.6H4.20649C5.03922 19.6 5.71429 18.9857 5.71429 18.2279V15.7721C5.71429 15.0143 5.03922 14.4 4.20649 14.4Z" fill="#FBFBFB"/>
			<path d="M3.906 7.23864H1.40008C0.626857 7.23864 0 7.85292 0 8.61072V11.0665C0 11.8243 0.626999 12.4386 1.40022 12.4386H3.906C4.67927 12.4386 5.30612 11.8243 5.30612 11.0665V8.61072C5.30612 7.85292 4.67927 7.23864 3.906 7.23864Z" fill="#FBFBFB"/>
			<path d="M11.1037 14.3614H8.59777C7.82455 14.3614 7.19769 14.9756 7.19769 15.7334L7.19755 18.1892C7.19755 18.947 7.82469 19.5614 8.59792 19.5614H11.1037C11.877 19.5614 12.5038 18.947 12.5038 18.1892V15.7334C12.5038 14.9756 11.877 14.3614 11.1037 14.3614Z" fill="#FBFBFB"/>
			<path d="M3.906 0.0539201H1.40008C0.626857 0.0539201 0 0.668199 0 1.426V3.8818C0 4.6396 0.626999 5.25392 1.40022 5.25392H3.906C4.67927 5.25392 5.30612 4.6396 5.30612 3.8818V1.426C5.30612 0.668199 4.67927 0.0539201 3.906 0.0539201Z" fill="#FBFBFB"/>
			<path d="M11.2974 7.31092H8.79151C8.01828 7.31092 7.39143 7.9252 7.39143 8.683V11.1388C7.39143 11.8966 8.01843 12.5109 8.79165 12.5109H11.2974C12.0707 12.5109 12.6975 11.8966 12.6975 11.1388V8.683C12.6975 7.9252 12.0707 7.31092 11.2974 7.31092Z" fill="#FBFBFB"/>
			<path d="M18.3333 14.3614H15.8274C15.0542 14.3614 14.4273 14.9756 14.4273 15.7334V18.1892C14.4273 18.947 15.0543 19.5614 15.8276 19.5614H18.3333C19.1066 19.5614 19.7335 18.947 19.7335 18.1892V15.7334C19.7335 14.9756 19.1066 14.3614 18.3333 14.3614Z" fill="#FBFBFB"/>
			<path d="M10.9941 0.139817H8.4882C7.71498 0.139817 7.08812 0.754096 7.08812 1.5119V3.96769C7.08812 4.72549 7.71512 5.33982 8.48834 5.33982H10.9941C11.7674 5.33982 12.3942 4.72504 12.3942 3.96724V1.5119C12.3942 0.754096 11.7674 0.139817 10.9941 0.139817Z" fill="#FBFBFB"/>
			<path d="M18.1523 7.45364H15.6464C14.8732 7.45364 14.2463 8.06792 14.2463 8.82572V11.2815C14.2463 12.0393 14.8733 12.6536 15.6466 12.6536H18.1523C18.9256 12.6536 19.5525 12.0393 19.5525 11.2815V8.82572C19.5525 8.06792 18.9256 7.45364 18.1523 7.45364Z" fill="#FBFBFB"/>
			<path d="M36.9452 18.8893C32.1024 18.8893 28.8892 15.6227 28.8892 10.5338C28.8892 5.55599 32.0565 2.22266 36.8304 2.22266C40.847 2.22266 43.67 4.51154 44.0831 7.95599H40.7552C40.4338 5.97821 38.8961 4.8671 36.8304 4.8671C33.9385 4.8671 32.2171 7.13377 32.2171 10.5338C32.2171 14.2671 34.1451 16.2449 36.9452 16.2449C39.3781 16.2449 40.9388 14.9115 41.0994 12.9115V12.6893H36.6239V10.2004H44.1979V12.2449C44.0602 16.2227 41.1683 18.8893 36.9452 18.8893Z" fill="#FBFBFB"/>
			<path d="M46.2044 18.6671V2.44488H54.2604C58.3687 2.44488 59.9983 4.37821 59.9983 7.17821C59.9983 9.68932 58.1622 10.8893 56.0277 11.1782V11.2449C57.4048 11.5782 58.0245 12.3115 58.5983 13.756C59.3327 15.5782 59.4475 17.756 60.3885 18.5338V18.6671H56.7162C55.9359 17.9115 55.7522 15.5338 55.3391 14.0893C54.926 12.6004 54.0309 12.4227 52.3554 12.4227H49.4176V18.6671H46.2044ZM49.4176 9.84488H53.9161C55.7982 9.84488 56.6703 8.77821 56.6703 7.40043C56.6703 5.88932 55.5916 5.02266 53.9161 5.02266H49.4176V9.84488Z" fill="#FBFBFB"/>
			<path d="M62.1324 18.6671V2.44488H73.5853V5.02266H65.3457V8.88932H72.782V11.4671H65.3457V16.0227H73.7001V18.6671H62.1324Z" fill="#FBFBFB"/>
			<path d="M75.9312 18.6671V2.44488H87.3841V5.02266H79.1444V8.88932H86.5808V11.4671H79.1444V16.0227H87.4988V18.6671H75.9312Z" fill="#FBFBFB"/>
			<path d="M89.73 18.6671V2.44488H93.6318L99.1861 11.4004C100.884 14.1115 101.091 15.0004 101.091 15.0004H101.16L101.114 2.44488H104.327V18.6671H100.402L94.6416 9.44488C93.3334 7.35599 92.9891 6.08932 92.9891 6.08932H92.9432V18.6671H89.73Z" fill="#FBFBFB"/>
			<path d="M106.744 18.6671V15.3782H110.095V18.6671H106.744Z" fill="#FBFBFB"/>
			<path d="M112.509 18.6671V2.44488H115.722V8.93377H123.411V2.44488H126.624V18.6671H123.411V11.5115H115.722V18.6671H112.509Z" fill="#FBFBFB"/>
			<path d="M127.997 18.6671L134.424 2.44488H137.912L144.431 18.6671H140.988L139.634 14.9338H132.679L131.325 18.6671H127.997ZM133.597 12.356H138.716L137.224 8.35599C136.191 5.40043 136.168 4.8671 136.168 4.8671H136.122C136.122 4.8671 136.122 5.40043 135.089 8.35599L133.597 12.356Z" fill="#FBFBFB"/>
			<path d="M145.799 18.6671V2.44488H153.855C157.964 2.44488 159.593 4.37821 159.593 7.17821C159.593 9.68932 157.757 10.8893 155.622 11.1782V11.2449C157 11.5782 157.619 12.3115 158.193 13.756C158.928 15.5782 159.042 17.756 159.983 18.5338V18.6671H156.311C155.531 17.9115 155.347 15.5338 154.934 14.0893C154.521 12.6004 153.626 12.4227 151.95 12.4227H149.012V18.6671H145.799ZM149.012 9.84488H153.511C155.393 9.84488 156.265 8.77821 156.265 7.40043C156.265 5.88932 155.186 5.02266 153.511 5.02266H149.012V9.84488Z" fill="#FBFBFB"/>
			<path d="M165.134 18.6671L158.983 2.44488H162.426C162.426 2.44488 165.754 11.5338 166.098 12.6449C166.649 14.4227 166.901 15.3338 166.901 15.3338H166.947C166.924 15.3338 167.177 14.4227 167.75 12.6449C168.118 11.5338 171.308 2.44488 171.308 2.44488H174.636L168.714 18.6671H165.134Z" fill="#FBFBFB"/>
			<path d="M175.952 18.6671V2.44488H187.405V5.02266H179.165V8.88932H186.601V11.4671H179.165V16.0227H187.52V18.6671H175.952Z" fill="#FBFBFB"/>
			<path d="M195.497 18.8893C191.228 18.8893 188.657 16.6449 188.657 13.3115H192.329C192.283 15.2004 193.569 16.2449 195.497 16.2449C197.539 16.2449 198.503 15.4671 198.503 14.3115C198.503 13.156 197.677 12.6671 194.739 11.8893C192.054 11.1782 189.116 10.3338 189.116 7.00043C189.116 4.35599 191.503 2.22266 195.267 2.22266C199.146 2.22266 201.625 4.33377 201.625 7.31154H198.067C198.044 5.73377 196.943 4.8671 195.267 4.8671C193.638 4.8671 192.559 5.6671 192.559 6.73377C192.559 8.00043 193.454 8.40043 195.795 9.04488C199.261 9.97821 202.061 10.356 202.061 13.9782C202.061 16.8893 199.33 18.8893 195.497 18.8893Z" fill="#FBFBFB"/>
			<path d="M207.293 18.6671V5.08932H202.221V2.44488H215.556V5.08932H210.506V18.6671H207.293Z" fill="#FBFBFB"/>
		</symbol>
		<symbol id="hamburger-mobile" width="32" height="32" viewBox="0 0 32 32" fill="none" xmlns="http://www.w3.org/2000/svg">
			<path d="M5.33337 8H26.6667M5.33337 16H16M5.33337 24H26.6667" stroke="#FBFBFB" stroke-width="3" stroke-linecap="round" stroke-linejoin="round"/>
		</symbol>
		<symbol id="hamburger-tablet" width="40" height="40" viewBox="0 0 40 40" fill="none" xmlns="http://www.w3.org/2000/svg">
			<path d="M6.66663 10H33.3333M6.66663 20H20M6.66663 30H33.3333" stroke="#FBFBFB" stroke-width="4" stroke-linecap="round" stroke-linejoin="round"/>
		</symbol>
		<symbol id="close-mobile" width="32" height="32" viewBox="0 0 32 32" fill="none" xmlns="http://www.w3.org/2000/svg">
			<path d="M24 8L8 24" stroke="#FBFBFB" stroke-width="3" stroke-linecap="round" stroke-linejoin="round"/>
			<path d="M8 8L24 24" stroke="#FBFBFB" stroke-width="3" stroke-linecap="round" stroke-linejoin="round"/>
		</symbol>
		<symbol id="close-tablet" width="40" height="40" viewBox="0 0 40 40" fill="none" xmlns="http://www.w3.org/2000/svg">
			<path d="M30 10L10 30" stroke="#FBFBFB" stroke-width="4" stroke-linecap="round" stroke-linejoin="round"/>
			<path d="M10 10L30 30" stroke="#FBFBFB" stroke-width="4" stroke-linecap="round" stroke-linejoin="round"/>
		</symbol>
	</defs>
</svg>
